<svg xmlns="http://www.w3.org/2000/svg" xmlns:xlink="http://www.w3.org/1999/xlink" width="500" zoomAndPan="magnify" viewBox="0 0 375 374.999991" height="500" preserveAspectRatio="xMidYMid meet" version="1.0"><defs><g/><clipPath id="51a131deea"><path d="M 0.441406 0.921875 L 137 0.921875 L 137 173 L 0.441406 173 Z M 0.441406 0.921875 " clip-rule="nonzero"/></clipPath><clipPath id="bcb3496478"><rect x="0" width="137" y="0" height="173"/></clipPath><clipPath id="a973ac188e"><path d="M 183 20 L 320 20 L 320 192.199219 L 183 192.199219 Z M 183 20 " clip-rule="nonzero"/></clipPath><clipPath id="d8f4cf25b9"><rect x="0" width="137" y="0" height="173"/></clipPath><clipPath id="a03b56a790"><path d="M 106 0.921875 L 207 0.921875 L 207 173 L 106 173 Z M 106 0.921875 " clip-rule="nonzero"/></clipPath><clipPath id="2cfae3602c"><rect x="0" width="101" y="0" height="173"/></clipPath><clipPath id="af3dabe797"><path d="M 317.867188 116.246094 L 340.351562 116.246094 L 340.351562 138.730469 L 317.867188 138.730469 Z M 317.867188 116.246094 " clip-rule="nonzero"/></clipPath><clipPath id="098826ec21"><path d="M 329.109375 116.246094 C 322.902344 116.246094 317.867188 121.277344 317.867188 127.488281 C 317.867188 133.699219 322.902344 138.730469 329.109375 138.730469 C 335.320312 138.730469 340.351562 133.699219 340.351562 127.488281 C 340.351562 121.277344 335.320312 116.246094 329.109375 116.246094 Z M 329.109375 116.246094 " clip-rule="nonzero"/></clipPath><clipPath id="18342dd3d8"><path d="M 0.867188 0.246094 L 23.351562 0.246094 L 23.351562 22.730469 L 0.867188 22.730469 Z M 0.867188 0.246094 " clip-rule="nonzero"/></clipPath><clipPath id="730cc01e69"><path d="M 12.109375 0.246094 C 5.902344 0.246094 0.867188 5.277344 0.867188 11.488281 C 0.867188 17.699219 5.902344 22.730469 12.109375 22.730469 C 18.320312 22.730469 23.351562 17.699219 23.351562 11.488281 C 23.351562 5.277344 18.320312 0.246094 12.109375 0.246094 Z M 12.109375 0.246094 " clip-rule="nonzero"/></clipPath><clipPath id="43fc18c877"><rect x="0" width="24" y="0" height="23"/></clipPath><clipPath id="756529e4a3"><rect x="0" width="277" y="0" height="37"/></clipPath><clipPath id="bdfacae99a"><rect x="0" width="341" y="0" height="193"/></clipPath></defs><g transform="matrix(1, 0, 0, 1, 19, 91)"><g clip-path="url(#bdfacae99a)"><g clip-path="url(#51a131deea)"><g><g clip-path="url(#bcb3496478)"><g fill="#000000" fill-opacity="1"><g transform="translate(1.180327, 134.812744)"><g><path d="M 81.59375 0 L 47.5 0 L 47.5 -40.515625 C 47.5 -42.703125 46.953125 -44.34375 45.859375 -45.4375 C 44.765625 -46.53125 43.476562 -47.078125 42 -47.078125 C 40.53125 -47.078125 39.25 -46.550781 38.15625 -45.5 C 37.0625 -44.457031 36.515625 -42.84375 36.515625 -40.65625 L 36.515625 0 L 1.421875 0 L 1.421875 -42.078125 C 1.421875 -49.597656 2.585938 -55.925781 4.921875 -61.0625 C 7.253906 -66.195312 10.390625 -70.332031 14.328125 -73.46875 C 18.273438 -76.601562 22.648438 -78.882812 27.453125 -80.3125 C 32.265625 -81.738281 37.140625 -82.453125 42.078125 -82.453125 C 46.078125 -82.453125 50.023438 -81.757812 53.921875 -80.375 C 57.816406 -79 61.382812 -76.695312 64.625 -73.46875 C 67.382812 -76.507812 70.785156 -78.742188 74.828125 -80.171875 C 78.867188 -81.597656 82.835938 -82.359375 86.734375 -82.453125 C 91.773438 -82.453125 96.71875 -81.710938 101.5625 -80.234375 C 106.414062 -78.765625 110.816406 -76.4375 114.765625 -73.25 C 118.710938 -70.0625 121.875 -65.898438 124.25 -60.765625 C 126.625 -55.628906 127.8125 -49.398438 127.8125 -42.078125 L 127.8125 0 L 92.734375 0 L 92.734375 -40.65625 C 92.734375 -42.84375 92.160156 -44.457031 91.015625 -45.5 C 89.867188 -46.550781 88.582031 -47.078125 87.15625 -47.078125 C 85.726562 -47.078125 84.441406 -46.53125 83.296875 -45.4375 C 82.160156 -44.34375 81.59375 -42.703125 81.59375 -40.515625 Z M 81.59375 0 "/></g></g></g></g></g></g><g clip-path="url(#a973ac188e)"><g transform="matrix(1, 0, 0, 1, 183, 20)"><g clip-path="url(#d8f4cf25b9)"><g fill="#000000" fill-opacity="1"><g transform="translate(136.221513, 38.271957)"><g><path d="M -81.59375 0 L -47.5 0 L -47.5 40.515625 C -47.5 42.703125 -46.953125 44.34375 -45.859375 45.4375 C -44.765625 46.53125 -43.476562 47.078125 -42 47.078125 C -40.53125 47.078125 -39.25 46.550781 -38.15625 45.5 C -37.0625 44.457031 -36.515625 42.84375 -36.515625 40.65625 L -36.515625 0 L -1.421875 0 L -1.421875 42.078125 C -1.421875 49.597656 -2.585938 55.925781 -4.921875 61.0625 C -7.253906 66.195312 -10.390625 70.332031 -14.328125 73.46875 C -18.273438 76.601562 -22.648438 78.882812 -27.453125 80.3125 C -32.265625 81.738281 -37.140625 82.453125 -42.078125 82.453125 C -46.078125 82.453125 -50.023438 81.757812 -53.921875 80.375 C -57.816406 79 -61.382812 76.695312 -64.625 73.46875 C -67.382812 76.507812 -70.785156 78.742188 -74.828125 80.171875 C -78.867188 81.597656 -82.835938 82.359375 -86.734375 82.453125 C -91.773438 82.453125 -96.71875 81.710938 -101.5625 80.234375 C -106.414062 78.765625 -110.816406 76.4375 -114.765625 73.25 C -118.710938 70.0625 -121.875 65.898438 -124.25 60.765625 C -126.625 55.628906 -127.8125 49.398438 -127.8125 42.078125 L -127.8125 0 L -92.734375 0 L -92.734375 40.65625 C -92.734375 42.84375 -92.160156 44.457031 -91.015625 45.5 C -89.867188 46.550781 -88.582031 47.078125 -87.15625 47.078125 C -85.726562 47.078125 -84.441406 46.53125 -83.296875 45.4375 C -82.160156 44.34375 -81.59375 42.703125 -81.59375 40.515625 Z M -81.59375 0 "/></g></g></g></g></g></g><g clip-path="url(#a03b56a790)"><g transform="matrix(1, 0, 0, 1, 106, 0)"><g clip-path="url(#2cfae3602c)"><g fill="#ffffff" fill-opacity="1"><g transform="translate(6.358145, 134.719617)"><g><path d="M 89.304688 -99.863281 L 89.304688 -39.945312 C 89.304688 -33.65625 88.117188 -27.722656 85.738281 -22.140625 C 83.371094 -16.582031 80.074219 -11.6875 75.851562 -7.464844 C 71.628906 -3.242188 66.761719 0.0546875 61.253906 2.421875 C 55.71875 4.800781 49.753906 5.992188 43.367188 5.992188 C 37.082031 5.992188 31.148438 4.804688 25.566406 2.425781 C 20 0.0546875 15.125 -3.246094 10.945312 -7.480469 C 6.773438 -11.703125 3.507812 -16.589844 1.140625 -22.140625 C -1.238281 -27.722656 -2.425781 -33.65625 -2.425781 -39.945312 C -2.425781 -46.332031 -1.234375 -52.292969 1.144531 -57.832031 C 3.511719 -63.332031 6.777344 -68.191406 10.945312 -72.410156 C 15.125 -76.644531 20 -79.945312 25.566406 -82.316406 C 31.148438 -84.691406 37.082031 -85.882812 43.367188 -85.882812 L 52.214844 -85.882812 L 52.214844 -43.652344 L 43.367188 -43.652344 C 42.378906 -43.652344 41.546875 -43.304688 40.867188 -42.601562 C 40.15625 -41.867188 39.800781 -40.980469 39.800781 -39.945312 C 39.800781 -38.910156 40.15625 -38.023438 40.867188 -37.289062 C 41.546875 -36.585938 42.378906 -36.234375 43.367188 -36.234375 C 44.453125 -36.234375 45.332031 -36.585938 46.011719 -37.289062 C 46.722656 -38.023438 47.078125 -38.910156 47.078125 -39.945312 L 47.078125 -103.429688 L 89.304688 -103.429688 Z M 82.171875 -99.863281 L 85.738281 -99.863281 L 85.738281 -96.296875 L 50.644531 -96.296875 L 50.644531 -99.863281 L 54.210938 -99.863281 L 54.210938 -39.945312 C 54.210938 -36.984375 53.1875 -34.449219 51.140625 -32.332031 C 49.058594 -30.179688 46.46875 -29.101562 43.367188 -29.101562 C 40.363281 -29.101562 37.820312 -30.179688 35.738281 -32.332031 C 33.691406 -34.449219 32.667969 -36.984375 32.667969 -39.945312 C 32.667969 -42.902344 33.691406 -45.441406 35.738281 -47.558594 C 37.820312 -49.710938 40.363281 -50.789062 43.367188 -50.789062 L 48.648438 -50.789062 L 48.648438 -47.21875 L 45.082031 -47.21875 L 45.082031 -82.316406 L 48.648438 -82.316406 L 48.648438 -78.75 L 43.367188 -78.75 C 38.050781 -78.75 33.050781 -77.75 28.359375 -75.753906 C 23.65625 -73.75 19.542969 -70.964844 16.019531 -67.398438 C 12.484375 -63.816406 9.710938 -59.6875 7.699219 -55.011719 C 5.707031 -50.375 4.707031 -45.351562 4.707031 -39.945312 C 4.707031 -34.628906 5.707031 -29.625 7.703125 -24.9375 C 9.714844 -20.21875 12.484375 -16.070312 16.019531 -12.492188 C 19.542969 -8.925781 23.65625 -6.140625 28.359375 -4.136719 C 33.050781 -2.140625 38.050781 -1.140625 43.367188 -1.140625 C 48.777344 -1.140625 53.800781 -2.136719 58.4375 -4.132812 C 63.105469 -6.140625 67.230469 -8.933594 70.804688 -12.507812 C 74.378906 -16.082031 77.167969 -20.226562 79.175781 -24.9375 C 81.171875 -29.625 82.171875 -34.628906 82.171875 -39.945312 Z M 82.171875 -99.863281 "/></g></g></g><g fill="#008000" fill-opacity="1"><g transform="translate(6.358145, 134.719617)"><g><path d="M 85.734375 -99.859375 L 85.734375 -39.9375 C 85.734375 -34.132812 84.640625 -28.664062 82.453125 -23.53125 C 80.265625 -18.394531 77.21875 -13.878906 73.3125 -9.984375 C 69.414062 -6.085938 64.925781 -3.046875 59.84375 -0.859375 C 54.757812 1.328125 49.269531 2.421875 43.375 2.421875 C 37.570312 2.421875 32.101562 1.328125 26.96875 -0.859375 C 21.832031 -3.046875 17.335938 -6.085938 13.484375 -9.984375 C 9.628906 -13.878906 6.609375 -18.394531 4.421875 -23.53125 C 2.234375 -28.664062 1.140625 -34.132812 1.140625 -39.9375 C 1.140625 -45.832031 2.234375 -51.320312 4.421875 -56.40625 C 6.609375 -61.5 9.628906 -65.992188 13.484375 -69.890625 C 17.335938 -73.796875 21.832031 -76.84375 26.96875 -79.03125 C 32.101562 -81.21875 37.570312 -82.3125 43.375 -82.3125 L 48.640625 -82.3125 L 48.640625 -47.21875 L 43.375 -47.21875 C 41.375 -47.21875 39.679688 -46.503906 38.296875 -45.078125 C 36.921875 -43.648438 36.234375 -41.9375 36.234375 -39.9375 C 36.234375 -37.945312 36.921875 -36.238281 38.296875 -34.8125 C 39.679688 -33.382812 41.375 -32.671875 43.375 -32.671875 C 45.457031 -32.671875 47.1875 -33.382812 48.5625 -34.8125 C 49.945312 -36.238281 50.640625 -37.945312 50.640625 -39.9375 L 50.640625 -99.859375 Z M 85.734375 -99.859375 "/></g></g></g></g></g></g><g clip-path="url(#af3dabe797)"><g clip-path="url(#098826ec21)"><g transform="matrix(1, 0, 0, 1, 317, 116)"><g clip-path="url(#43fc18c877)"><g clip-path="url(#18342dd3d8)"><g clip-path="url(#730cc01e69)"><path fill="#000000" d="M 0.867188 0.246094 L 23.351562 0.246094 L 23.351562 22.730469 L 0.867188 22.730469 Z M 0.867188 0.246094 " fill-opacity="1" fill-rule="nonzero"/></g></g></g></g></g></g><g transform="matrix(1, 0, 0, 1, 33, 145)"><g clip-path="url(#756529e4a3)"><g fill="#000000" fill-opacity="1"><g transform="translate(1.137821, 28.201356)"><g><path d="M 19.828125 -20.125 C 20.210938 -20.101562 20.539062 -19.960938 20.8125 -19.703125 C 21.082031 -19.441406 21.21875 -19.125 21.21875 -18.75 L 21.21875 -1.375 C 21.21875 -0.988281 21.085938 -0.660156 20.828125 -0.390625 C 20.566406 -0.128906 20.226562 0 19.8125 0 C 19.382812 0 19.035156 -0.128906 18.765625 -0.390625 C 18.503906 -0.648438 18.375 -0.976562 18.375 -1.375 L 18.375 -14.671875 L 12.796875 -6.234375 C 12.660156 -6.054688 12.492188 -5.910156 12.296875 -5.796875 C 12.097656 -5.679688 11.894531 -5.632812 11.6875 -5.65625 C 11.488281 -5.632812 11.289062 -5.679688 11.09375 -5.796875 C 10.894531 -5.910156 10.726562 -6.054688 10.59375 -6.234375 L 5 -14.921875 L 5 -1.375 C 5 -0.976562 4.878906 -0.648438 4.640625 -0.390625 C 4.398438 -0.128906 4.078125 0 3.671875 0 C 3.285156 0 2.972656 -0.128906 2.734375 -0.390625 C 2.492188 -0.648438 2.375 -0.976562 2.375 -1.375 L 2.375 -18.75 C 2.375 -19.101562 2.507812 -19.421875 2.78125 -19.703125 C 3.050781 -19.984375 3.382812 -20.125 3.78125 -20.125 C 4.019531 -20.125 4.25 -20.066406 4.46875 -19.953125 C 4.6875 -19.835938 4.863281 -19.679688 5 -19.484375 L 11.796875 -9.1875 L 18.6875 -19.484375 C 18.988281 -19.910156 19.367188 -20.125 19.828125 -20.125 Z M 19.828125 -20.125 "/></g></g></g><g fill="#000000" fill-opacity="1"><g transform="translate(29.607046, 28.201356)"><g><path d="M 13.234375 -15.1875 C 13.628906 -15.1875 13.957031 -15.050781 14.21875 -14.78125 C 14.476562 -14.507812 14.609375 -14.1875 14.609375 -13.8125 L 14.609375 -1.40625 C 14.609375 0.988281 13.945312 2.773438 12.625 3.953125 C 11.3125 5.140625 9.570312 5.734375 7.40625 5.734375 C 6.695312 5.734375 6 5.664062 5.3125 5.53125 C 4.625 5.40625 4.054688 5.226562 3.609375 5 C 2.898438 4.664062 2.546875 4.222656 2.546875 3.671875 C 2.546875 3.578125 2.566406 3.453125 2.609375 3.296875 C 2.722656 2.972656 2.882812 2.722656 3.09375 2.546875 C 3.3125 2.378906 3.550781 2.296875 3.8125 2.296875 C 3.96875 2.296875 4.113281 2.320312 4.25 2.375 C 4.84375 2.644531 5.367188 2.859375 5.828125 3.015625 C 6.285156 3.171875 6.820312 3.25 7.4375 3.25 C 10.40625 3.25 11.890625 1.722656 11.890625 -1.328125 L 11.890625 -1.890625 C 11.367188 -1.203125 10.703125 -0.664062 9.890625 -0.28125 C 9.078125 0.09375 8.144531 0.28125 7.09375 0.28125 C 5.5 0.28125 4.253906 -0.222656 3.359375 -1.234375 C 2.472656 -2.242188 2.03125 -3.570312 2.03125 -5.21875 L 2.03125 -13.8125 C 2.03125 -14.207031 2.15625 -14.535156 2.40625 -14.796875 C 2.65625 -15.054688 2.984375 -15.1875 3.390625 -15.1875 C 3.785156 -15.1875 4.113281 -15.050781 4.375 -14.78125 C 4.632812 -14.507812 4.765625 -14.1875 4.765625 -13.8125 L 4.765625 -5.9375 C 4.765625 -4.675781 5.039062 -3.742188 5.59375 -3.140625 C 6.144531 -2.535156 6.988281 -2.234375 8.125 -2.234375 C 9.21875 -2.234375 10.117188 -2.578125 10.828125 -3.265625 C 11.535156 -3.960938 11.890625 -4.851562 11.890625 -5.9375 L 11.890625 -13.8125 C 11.890625 -14.207031 12.007812 -14.535156 12.25 -14.796875 C 12.5 -15.054688 12.828125 -15.1875 13.234375 -15.1875 Z M 13.234375 -15.1875 "/></g></g></g><g fill="#000000" fill-opacity="1"><g transform="translate(51.103185, 28.201356)"><g/></g></g><g fill="#000000" fill-opacity="1"><g transform="translate(63.933205, 28.201356)"><g><path d="M 10.828125 -20.09375 C 12.617188 -20.09375 14.15625 -19.640625 15.4375 -18.734375 C 16.71875 -17.835938 17.679688 -16.628906 18.328125 -15.109375 C 18.984375 -13.585938 19.3125 -11.898438 19.3125 -10.046875 C 19.3125 -8.171875 18.984375 -6.472656 18.328125 -4.953125 C 17.679688 -3.429688 16.71875 -2.222656 15.4375 -1.328125 C 14.15625 -0.441406 12.617188 0 10.828125 0 L 3.765625 0 C 3.378906 0 3.050781 -0.128906 2.78125 -0.390625 C 2.507812 -0.660156 2.375 -0.988281 2.375 -1.375 L 2.375 -18.71875 C 2.375 -19.09375 2.507812 -19.414062 2.78125 -19.6875 C 3.050781 -19.957031 3.378906 -20.09375 3.765625 -20.09375 Z M 10.53125 -2.640625 C 12.488281 -2.640625 13.953125 -3.332031 14.921875 -4.71875 C 15.898438 -6.101562 16.390625 -7.878906 16.390625 -10.046875 C 16.390625 -12.191406 15.894531 -13.960938 14.90625 -15.359375 C 13.925781 -16.753906 12.46875 -17.453125 10.53125 -17.453125 L 5.21875 -17.453125 L 5.21875 -2.640625 Z M 10.53125 -2.640625 "/></g></g></g><g fill="#000000" fill-opacity="1"><g transform="translate(89.389366, 28.201356)"><g><path d="M 14.234375 -15.234375 C 14.640625 -15.234375 14.96875 -15.101562 15.21875 -14.84375 C 15.476562 -14.59375 15.609375 -14.253906 15.609375 -13.828125 L 15.609375 -1.375 C 15.609375 -0.988281 15.476562 -0.660156 15.21875 -0.390625 C 14.96875 -0.128906 14.640625 0 14.234375 0 C 13.835938 0 13.515625 -0.128906 13.265625 -0.390625 C 13.015625 -0.648438 12.890625 -0.976562 12.890625 -1.375 L 12.890625 -2.125 C 12.390625 -1.457031 11.707031 -0.890625 10.84375 -0.421875 C 9.988281 0.046875 9.0625 0.28125 8.0625 0.28125 C 6.757812 0.28125 5.578125 -0.0507812 4.515625 -0.71875 C 3.453125 -1.382812 2.617188 -2.316406 2.015625 -3.515625 C 1.421875 -4.710938 1.125 -6.054688 1.125 -7.546875 C 1.125 -9.035156 1.421875 -10.378906 2.015625 -11.578125 C 2.617188 -12.773438 3.445312 -13.707031 4.5 -14.375 C 5.550781 -15.050781 6.710938 -15.390625 7.984375 -15.390625 C 8.992188 -15.390625 9.929688 -15.175781 10.796875 -14.75 C 11.671875 -14.332031 12.367188 -13.796875 12.890625 -13.140625 L 12.890625 -13.828125 C 12.890625 -14.234375 13.015625 -14.566406 13.265625 -14.828125 C 13.515625 -15.097656 13.835938 -15.234375 14.234375 -15.234375 Z M 8.375 -2.234375 C 9.28125 -2.234375 10.082031 -2.460938 10.78125 -2.921875 C 11.476562 -3.378906 12.019531 -4.007812 12.40625 -4.8125 C 12.800781 -5.625 13 -6.535156 13 -7.546875 C 13 -8.546875 12.800781 -9.445312 12.40625 -10.25 C 12.019531 -11.050781 11.476562 -11.6875 10.78125 -12.15625 C 10.082031 -12.625 9.28125 -12.859375 8.375 -12.859375 C 7.476562 -12.859375 6.679688 -12.628906 5.984375 -12.171875 C 5.285156 -11.710938 4.738281 -11.078125 4.34375 -10.265625 C 3.957031 -9.460938 3.765625 -8.554688 3.765625 -7.546875 C 3.765625 -6.535156 3.957031 -5.625 4.34375 -4.8125 C 4.738281 -4.007812 5.285156 -3.378906 5.984375 -2.921875 C 6.679688 -2.460938 7.476562 -2.234375 8.375 -2.234375 Z M 8.375 -2.234375 "/></g></g></g><g fill="#000000" fill-opacity="1"><g transform="translate(111.889882, 28.201356)"><g><path d="M 19.609375 -15.1875 C 19.972656 -15.1875 20.28125 -15.054688 20.53125 -14.796875 C 20.789062 -14.535156 20.921875 -14.207031 20.921875 -13.8125 C 20.921875 -13.675781 20.882812 -13.492188 20.8125 -13.265625 L 16.421875 -0.859375 C 16.304688 -0.554688 16.113281 -0.328125 15.84375 -0.171875 C 15.570312 -0.015625 15.285156 0.0390625 14.984375 0 C 14.460938 -0.0390625 14.070312 -0.328125 13.8125 -0.859375 L 10.828125 -8.671875 L 8.0625 -0.859375 C 7.945312 -0.585938 7.785156 -0.378906 7.578125 -0.234375 C 7.367188 -0.0976562 7.140625 -0.0195312 6.890625 0 C 6.597656 0.0390625 6.3125 -0.0195312 6.03125 -0.1875 C 5.757812 -0.351562 5.578125 -0.578125 5.484375 -0.859375 L 1.03125 -13.265625 C 0.976562 -13.429688 0.953125 -13.613281 0.953125 -13.8125 C 0.953125 -14.1875 1.070312 -14.507812 1.3125 -14.78125 C 1.5625 -15.050781 1.890625 -15.1875 2.296875 -15.1875 C 2.941406 -15.1875 3.363281 -14.898438 3.5625 -14.328125 L 6.96875 -4.65625 L 9.703125 -11.796875 C 9.929688 -12.367188 10.351562 -12.65625 10.96875 -12.65625 C 11.539062 -12.65625 11.929688 -12.367188 12.140625 -11.796875 L 14.921875 -4.765625 L 18.28125 -14.328125 C 18.488281 -14.898438 18.929688 -15.1875 19.609375 -15.1875 Z M 19.609375 -15.1875 "/></g></g></g><g fill="#000000" fill-opacity="1"><g transform="translate(138.608654, 28.201356)"><g><path d="M 14.234375 -15.234375 C 14.640625 -15.234375 14.96875 -15.101562 15.21875 -14.84375 C 15.476562 -14.59375 15.609375 -14.253906 15.609375 -13.828125 L 15.609375 -1.375 C 15.609375 -0.988281 15.476562 -0.660156 15.21875 -0.390625 C 14.96875 -0.128906 14.640625 0 14.234375 0 C 13.835938 0 13.515625 -0.128906 13.265625 -0.390625 C 13.015625 -0.648438 12.890625 -0.976562 12.890625 -1.375 L 12.890625 -2.125 C 12.390625 -1.457031 11.707031 -0.890625 10.84375 -0.421875 C 9.988281 0.046875 9.0625 0.28125 8.0625 0.28125 C 6.757812 0.28125 5.578125 -0.0507812 4.515625 -0.71875 C 3.453125 -1.382812 2.617188 -2.316406 2.015625 -3.515625 C 1.421875 -4.710938 1.125 -6.054688 1.125 -7.546875 C 1.125 -9.035156 1.421875 -10.378906 2.015625 -11.578125 C 2.617188 -12.773438 3.445312 -13.707031 4.5 -14.375 C 5.550781 -15.050781 6.710938 -15.390625 7.984375 -15.390625 C 8.992188 -15.390625 9.929688 -15.175781 10.796875 -14.75 C 11.671875 -14.332031 12.367188 -13.796875 12.890625 -13.140625 L 12.890625 -13.828125 C 12.890625 -14.234375 13.015625 -14.566406 13.265625 -14.828125 C 13.515625 -15.097656 13.835938 -15.234375 14.234375 -15.234375 Z M 8.375 -2.234375 C 9.28125 -2.234375 10.082031 -2.460938 10.78125 -2.921875 C 11.476562 -3.378906 12.019531 -4.007812 12.40625 -4.8125 C 12.800781 -5.625 13 -6.535156 13 -7.546875 C 13 -8.546875 12.800781 -9.445312 12.40625 -10.25 C 12.019531 -11.050781 11.476562 -11.6875 10.78125 -12.15625 C 10.082031 -12.625 9.28125 -12.859375 8.375 -12.859375 C 7.476562 -12.859375 6.679688 -12.628906 5.984375 -12.171875 C 5.285156 -11.710938 4.738281 -11.078125 4.34375 -10.265625 C 3.957031 -9.460938 3.765625 -8.554688 3.765625 -7.546875 C 3.765625 -6.535156 3.957031 -5.625 4.34375 -4.8125 C 4.738281 -4.007812 5.285156 -3.378906 5.984375 -2.921875 C 6.679688 -2.460938 7.476562 -2.234375 8.375 -2.234375 Z M 8.375 -2.234375 "/></g></g></g><g fill="#000000" fill-opacity="1"><g transform="translate(161.10917, 28.201356)"><g><path d="M 4.625 -1.375 C 4.625 -0.988281 4.492188 -0.660156 4.234375 -0.390625 C 3.972656 -0.128906 3.644531 0 3.25 0 C 2.863281 0 2.539062 -0.128906 2.28125 -0.390625 C 2.019531 -0.660156 1.890625 -0.988281 1.890625 -1.375 L 1.890625 -13.8125 C 1.890625 -14.1875 2.019531 -14.507812 2.28125 -14.78125 C 2.539062 -15.050781 2.863281 -15.1875 3.25 -15.1875 C 3.644531 -15.1875 3.972656 -15.050781 4.234375 -14.78125 C 4.492188 -14.507812 4.625 -14.1875 4.625 -13.8125 Z M 3.25 -17.078125 C 2.695312 -17.078125 2.300781 -17.175781 2.0625 -17.375 C 1.820312 -17.582031 1.703125 -17.90625 1.703125 -18.34375 L 1.703125 -18.796875 C 1.703125 -19.253906 1.828125 -19.578125 2.078125 -19.765625 C 2.335938 -19.960938 2.738281 -20.0625 3.28125 -20.0625 C 3.8125 -20.0625 4.195312 -19.957031 4.4375 -19.75 C 4.675781 -19.550781 4.796875 -19.234375 4.796875 -18.796875 L 4.796875 -18.34375 C 4.796875 -17.882812 4.671875 -17.554688 4.421875 -17.359375 C 4.171875 -17.171875 3.78125 -17.078125 3.25 -17.078125 Z M 3.25 -17.078125 "/></g></g></g><g fill="#000000" fill-opacity="1"><g transform="translate(172.50439, 28.201356)"><g/></g></g><g fill="#000000" fill-opacity="1"><g transform="translate(185.334409, 28.201356)"><g><path d="M 25.265625 -20.171875 C 25.617188 -20.171875 25.945312 -20.035156 26.25 -19.765625 C 26.5625 -19.503906 26.71875 -19.15625 26.71875 -18.71875 C 26.71875 -18.5625 26.691406 -18.394531 26.640625 -18.21875 L 20.6875 -0.859375 C 20.613281 -0.585938 20.457031 -0.378906 20.21875 -0.234375 C 19.976562 -0.0976562 19.722656 -0.0195312 19.453125 0 C 19.191406 0 18.9375 -0.0703125 18.6875 -0.21875 C 18.4375 -0.375 18.253906 -0.597656 18.140625 -0.890625 L 13.65625 -11.359375 L 9.21875 -0.890625 C 9.101562 -0.597656 8.921875 -0.375 8.671875 -0.21875 C 8.421875 -0.0703125 8.148438 0 7.859375 0 C 7.597656 -0.0195312 7.351562 -0.101562 7.125 -0.25 C 6.894531 -0.40625 6.738281 -0.609375 6.65625 -0.859375 L 0.71875 -18.21875 C 0.65625 -18.394531 0.625 -18.5625 0.625 -18.71875 C 0.625 -19.132812 0.78125 -19.476562 1.09375 -19.75 C 1.414062 -20.03125 1.757812 -20.171875 2.125 -20.171875 C 2.425781 -20.171875 2.703125 -20.085938 2.953125 -19.921875 C 3.203125 -19.765625 3.363281 -19.550781 3.4375 -19.28125 L 8.296875 -4.90625 L 12.453125 -15.125 C 12.566406 -15.394531 12.738281 -15.601562 12.96875 -15.75 C 13.195312 -15.90625 13.457031 -15.984375 13.75 -15.984375 C 14.03125 -15.984375 14.285156 -15.90625 14.515625 -15.75 C 14.753906 -15.601562 14.929688 -15.394531 15.046875 -15.125 L 19.09375 -4.90625 L 23.90625 -19.28125 C 23.988281 -19.570312 24.148438 -19.789062 24.390625 -19.9375 C 24.640625 -20.09375 24.929688 -20.171875 25.265625 -20.171875 Z M 25.265625 -20.171875 "/></g></g></g><g fill="#000000" fill-opacity="1"><g transform="translate(217.562774, 28.201356)"><g><path d="M 14.234375 -15.234375 C 14.640625 -15.234375 14.96875 -15.101562 15.21875 -14.84375 C 15.476562 -14.59375 15.609375 -14.253906 15.609375 -13.828125 L 15.609375 -1.375 C 15.609375 -0.988281 15.476562 -0.660156 15.21875 -0.390625 C 14.96875 -0.128906 14.640625 0 14.234375 0 C 13.835938 0 13.515625 -0.128906 13.265625 -0.390625 C 13.015625 -0.648438 12.890625 -0.976562 12.890625 -1.375 L 12.890625 -2.125 C 12.390625 -1.457031 11.707031 -0.890625 10.84375 -0.421875 C 9.988281 0.046875 9.0625 0.28125 8.0625 0.28125 C 6.757812 0.28125 5.578125 -0.0507812 4.515625 -0.71875 C 3.453125 -1.382812 2.617188 -2.316406 2.015625 -3.515625 C 1.421875 -4.710938 1.125 -6.054688 1.125 -7.546875 C 1.125 -9.035156 1.421875 -10.378906 2.015625 -11.578125 C 2.617188 -12.773438 3.445312 -13.707031 4.5 -14.375 C 5.550781 -15.050781 6.710938 -15.390625 7.984375 -15.390625 C 8.992188 -15.390625 9.929688 -15.175781 10.796875 -14.75 C 11.671875 -14.332031 12.367188 -13.796875 12.890625 -13.140625 L 12.890625 -13.828125 C 12.890625 -14.234375 13.015625 -14.566406 13.265625 -14.828125 C 13.515625 -15.097656 13.835938 -15.234375 14.234375 -15.234375 Z M 8.375 -2.234375 C 9.28125 -2.234375 10.082031 -2.460938 10.78125 -2.921875 C 11.476562 -3.378906 12.019531 -4.007812 12.40625 -4.8125 C 12.800781 -5.625 13 -6.535156 13 -7.546875 C 13 -8.546875 12.800781 -9.445312 12.40625 -10.25 C 12.019531 -11.050781 11.476562 -11.6875 10.78125 -12.15625 C 10.082031 -12.625 9.28125 -12.859375 8.375 -12.859375 C 7.476562 -12.859375 6.679688 -12.628906 5.984375 -12.171875 C 5.285156 -11.710938 4.738281 -11.078125 4.34375 -10.265625 C 3.957031 -9.460938 3.765625 -8.554688 3.765625 -7.546875 C 3.765625 -6.535156 3.957031 -5.625 4.34375 -4.8125 C 4.738281 -4.007812 5.285156 -3.378906 5.984375 -2.921875 C 6.679688 -2.460938 7.476562 -2.234375 8.375 -2.234375 Z M 8.375 -2.234375 "/></g></g></g><g fill="#000000" fill-opacity="1"><g transform="translate(240.06329, 28.201356)"><g><path d="M 5 -1.375 C 5 -0.988281 4.863281 -0.660156 4.59375 -0.390625 C 4.320312 -0.128906 3.992188 0 3.609375 0 C 3.234375 0 2.914062 -0.128906 2.65625 -0.390625 C 2.394531 -0.660156 2.265625 -0.988281 2.265625 -1.375 L 2.265625 -19.859375 C 2.265625 -20.242188 2.398438 -20.566406 2.671875 -20.828125 C 2.941406 -21.097656 3.265625 -21.234375 3.640625 -21.234375 C 4.023438 -21.234375 4.347656 -21.097656 4.609375 -20.828125 C 4.867188 -20.566406 5 -20.242188 5 -19.859375 Z M 5 -1.375 "/></g></g></g><g fill="#000000" fill-opacity="1"><g transform="translate(252.204619, 28.201356)"><g><path d="M 14.234375 -15.234375 C 14.640625 -15.234375 14.96875 -15.101562 15.21875 -14.84375 C 15.476562 -14.59375 15.609375 -14.253906 15.609375 -13.828125 L 15.609375 -1.375 C 15.609375 -0.988281 15.476562 -0.660156 15.21875 -0.390625 C 14.96875 -0.128906 14.640625 0 14.234375 0 C 13.835938 0 13.515625 -0.128906 13.265625 -0.390625 C 13.015625 -0.648438 12.890625 -0.976562 12.890625 -1.375 L 12.890625 -2.125 C 12.390625 -1.457031 11.707031 -0.890625 10.84375 -0.421875 C 9.988281 0.046875 9.0625 0.28125 8.0625 0.28125 C 6.757812 0.28125 5.578125 -0.0507812 4.515625 -0.71875 C 3.453125 -1.382812 2.617188 -2.316406 2.015625 -3.515625 C 1.421875 -4.710938 1.125 -6.054688 1.125 -7.546875 C 1.125 -9.035156 1.421875 -10.378906 2.015625 -11.578125 C 2.617188 -12.773438 3.445312 -13.707031 4.5 -14.375 C 5.550781 -15.050781 6.710938 -15.390625 7.984375 -15.390625 C 8.992188 -15.390625 9.929688 -15.175781 10.796875 -14.75 C 11.671875 -14.332031 12.367188 -13.796875 12.890625 -13.140625 L 12.890625 -13.828125 C 12.890625 -14.234375 13.015625 -14.566406 13.265625 -14.828125 C 13.515625 -15.097656 13.835938 -15.234375 14.234375 -15.234375 Z M 8.375 -2.234375 C 9.28125 -2.234375 10.082031 -2.460938 10.78125 -2.921875 C 11.476562 -3.378906 12.019531 -4.007812 12.40625 -4.8125 C 12.800781 -5.625 13 -6.535156 13 -7.546875 C 13 -8.546875 12.800781 -9.445312 12.40625 -10.25 C 12.019531 -11.050781 11.476562 -11.6875 10.78125 -12.15625 C 10.082031 -12.625 9.28125 -12.859375 8.375 -12.859375 C 7.476562 -12.859375 6.679688 -12.628906 5.984375 -12.171875 C 5.285156 -11.710938 4.738281 -11.078125 4.34375 -10.265625 C 3.957031 -9.460938 3.765625 -8.554688 3.765625 -7.546875 C 3.765625 -6.535156 3.957031 -5.625 4.34375 -4.8125 C 4.738281 -4.007812 5.285156 -3.378906 5.984375 -2.921875 C 6.679688 -2.460938 7.476562 -2.234375 8.375 -2.234375 Z M 8.375 -2.234375 "/></g></g></g></g></g></g></g></svg>